<?xml version="1.0" encoding="iso-8859-1"?>
<!-- Generator: Adobe Illustrator 19.1.0, SVG Export Plug-In . SVG Version: 6.00 Build 0)  -->
<svg width="241" height="33" viewBox="0 0 241 33" fill="none" xmlns="http://www.w3.org/2000/svg">
<g clip-path="url(#clip0_1_17)">
<path d="M43.8013 17.6417H53.8797V12.1429H43.8013V5.49881H57.1616V0H37.4702V32.079H57.6271V26.5802H43.8013V17.6417Z" fill="#FA5E4B"/>
<path d="M76.5018 0H70.1747V32.079H90.3316V26.5802H76.5018V0Z" fill="#FA5E4B"/>
<path d="M106.264 0H99.9364V32.079H106.264V0Z" fill="#FA5E4B"/>
<path d="M128.768 0L114.701 32.079H121.312L124.405 24.976H137.58L140.688 32.079H147.299L133.221 0H128.768ZM126.795 19.4772L130.965 9.99118L135.138 19.4772H126.795Z" fill="#FA5E4B"/>
<path d="M174.056 14.0671C175.381 12.5782 176.127 10.6803 176.162 8.70709C176.158 7.47946 175.884 6.26708 175.359 5.15204C174.833 4.03701 174.069 3.04536 173.117 2.24425C171.539 0.87148 169.461 0 165.757 0H154.597V32.079H167.398C171.618 32.079 174.147 30.98 175.977 29.1907C176.923 28.2908 177.675 27.2153 178.19 26.0274C178.704 24.8395 178.971 23.563 178.975 22.2729C178.975 18.6983 176.979 15.49 174.056 14.0671ZM160.928 5.49881H165.382C167.354 5.49881 168.242 5.95769 168.896 6.65564C169.499 7.27371 169.835 8.09455 169.835 8.9481C169.835 9.80165 169.499 10.6225 168.896 11.2406C168.242 11.9269 167.35 12.3974 165.382 12.3974H160.928V5.49881ZM171.476 25.165C170.687 26.0364 169.461 26.5879 167.256 26.5879H160.944V17.8731H167.256C169.461 17.8731 170.679 18.4206 171.476 19.2921C172.23 20.0911 172.648 21.138 172.648 22.2247C172.648 23.3114 172.23 24.3583 171.476 25.1572V25.165Z" fill="#FA5E4B"/>
<path d="M197.148 0H190.82V32.079H210.977V26.5802H197.148V0Z" fill="#FA5E4B"/>
<path d="M226.913 26.5802V17.6417H236.992V12.1429H226.913V5.49881H240.274V0H220.582V32.079H240.739V26.5802H226.913Z" fill="#FA5E4B"/>
<path d="M14.7178 17.6957C16.4641 17.4301 18.09 16.6623 19.3882 15.49C20.3054 14.6496 21.0364 13.6343 21.5362 12.5068C22.036 11.3792 22.2938 10.1634 22.2938 8.9346C22.2938 7.70576 22.036 6.48999 21.5362 5.36245C21.0364 4.23491 20.3054 3.21957 19.3882 2.37922C17.7472 0.917753 15.5896 0 12.213 0H0.260864V32.079H6.57222V17.8731H8.17766C9.17101 21.9879 11.5552 25.655 14.9445 28.2812C18.3339 30.9074 22.5304 32.3392 26.8553 32.345V26.1753C24.1822 26.168 21.5776 25.3478 19.4027 23.8284C17.2279 22.309 15.5906 20.1657 14.7178 17.6957ZM6.57222 5.49881H11.8382C13.6685 5.49881 14.4653 5.91141 15.0255 6.50526C15.6368 7.19092 15.9707 8.07136 15.9643 8.98088C15.9628 9.87511 15.6292 10.7384 15.0255 11.4102C14.4653 12.0079 13.6685 12.3742 11.8382 12.3742H6.57222V5.49881Z" fill="#FA5E4B"/>
</g>
<defs>
<clipPath id="clip0_1_17">
<rect width="240.478" height="32.345" fill="white" transform="translate(0.260864)"/>
</clipPath>
</defs>
</svg>


