<?xml version="1.0" encoding="iso-8859-1"?>
<!-- Generator: Adobe Illustrator 19.1.0, SVG Export Plug-In . SVG Version: 6.00 Build 0)  -->
<svg width="344" height="352" viewBox="0 0 344 352" fill="none" xmlns="http://www.w3.org/2000/svg">
<path d="M279.011 87.997L277.537 92.7546C277.49 92.8783 277.454 92.971 277.356 93.04C277.083 93.2896 276.849 93.3418 276.668 93.1656C276.467 92.9466 276.388 92.5967 276.45 92.159C276.54 91.0931 276.594 90.12 276.6 89.2706C276.607 88.4212 276.508 87.567 276.336 86.7199C276.164 85.8727 275.827 85.1754 275.326 84.6278C274.675 83.9159 273.936 83.5252 273.059 83.4009C272.182 83.2765 271.403 83.5449 270.703 84.163C269.322 85.4421 269.194 87.3455 270.352 89.885L271.555 92.5839C271.906 93.4288 272.241 94.4093 272.473 95.5634C272.705 96.7175 272.692 97.9547 272.445 99.2441C272.186 100.564 271.524 101.73 270.398 102.717C268.809 104.164 267.082 104.956 265.197 105.047C262.783 105.219 260.712 104.316 258.908 102.345C257.988 101.316 257.308 100.309 256.911 99.3048L256.5 98.153C256.367 97.8531 256.259 97.6698 256.128 97.5484C255.978 97.3841 255.78 97.3435 255.504 97.4147C255.227 97.4859 255.03 97.4453 254.91 97.2929C254.71 97.0739 254.669 96.8098 254.757 96.4886L256.595 90.4156C256.623 90.249 256.713 90.1063 256.866 89.9875C256.975 89.8876 257.116 89.7997 257.295 89.7974C257.473 89.7952 257.597 89.8429 257.698 89.9524C257.848 90.1166 257.9 90.3498 257.929 90.6449C257.927 90.928 257.918 91.599 257.84 92.6339C257.762 93.6689 257.78 94.4564 257.811 94.9299C257.878 95.7722 257.939 96.5408 257.98 97.2665C258.021 97.9922 258.16 98.649 258.353 99.2558C258.547 99.8627 258.9 100.424 259.382 100.929C260.064 101.653 260.841 102.129 261.713 102.358C262.586 102.587 263.479 102.576 264.363 102.313C265.247 102.049 266.067 101.583 266.822 100.915C268.794 99.1179 269.113 96.4367 267.75 92.8597L266.771 90.3179C266.195 88.8542 265.953 87.4479 265.995 86.0442C266.056 84.6832 266.57 83.532 267.599 82.6143C268.365 81.9153 269.235 81.5043 270.293 81.3433C271.32 81.1703 272.345 81.2804 273.348 81.6309C274.352 81.9813 275.199 82.5553 275.881 83.2791C276.301 83.76 276.658 84.2171 276.892 84.6265C277.114 85.0668 277.305 85.4952 277.496 85.9236C277.644 86.371 277.79 86.64 277.871 86.7066C277.94 86.8042 278.138 86.8448 278.367 86.8973C278.596 86.9498 278.793 86.9904 278.844 87.0452C279.054 87.5164 279.106 87.7496 279.011 87.997Z" fill="#127CCC"/>
<path d="M291.5 105.01L276.722 122.718C276.522 122.961 276.427 123.208 276.417 123.418C276.396 123.658 276.437 123.922 276.497 124.229C276.557 124.536 276.609 124.769 276.593 124.905C276.576 125.04 276.517 125.195 276.345 125.271C276.064 125.447 275.766 125.297 275.463 124.79L272.569 120.198C272.304 119.777 272.318 119.463 272.599 119.287C272.739 119.199 272.887 119.185 273.03 119.275C273.185 119.335 273.347 119.468 273.571 119.626C273.796 119.783 273.958 119.916 274.07 119.995C274.213 120.085 274.33 120.059 274.458 120.002C274.599 119.914 274.763 119.764 274.963 119.522L277.818 116.076C277.975 115.853 277.884 115.534 277.6 115.07L274.214 109.721C273.988 109.385 273.818 109.178 273.725 109.142C273.601 109.095 273.337 109.135 272.913 109.22L270.775 109.783C270.137 109.963 269.696 110.184 269.427 110.329C269.017 110.562 268.793 110.866 268.767 111.211C268.742 111.556 268.747 111.913 268.833 112.337C268.919 112.76 268.929 113.013 268.8 113.07C268.476 113.265 268.135 113.133 267.863 112.638L265.46 108.804C265.195 108.382 265.166 108.087 265.436 107.942C265.576 107.854 265.724 107.84 265.898 107.943C266.072 108.045 266.339 108.183 266.644 108.407C266.98 108.643 267.279 108.793 267.557 108.9C267.836 109.008 268.151 109.022 268.47 108.932L290.372 103.227L291.5 105.01ZM286.663 105.563L275.529 108.523C275.529 108.523 275.455 108.53 275.369 108.568C275.252 108.594 275.167 108.632 275.124 108.651C274.995 108.708 274.979 108.844 275.067 108.984L278.579 114.559C278.718 114.754 278.873 114.813 279.025 114.695L286.663 105.563Z" fill="#127CCC"/>
<path d="M282.078 130.528C288.093 129.966 293.705 129.249 298.964 128.432C299.769 128.28 300.322 128.138 300.665 127.986C300.922 127.872 301.044 127.741 301.096 127.513C301.136 127.315 301.139 127.032 301.103 126.663C301.055 126.325 301.057 126.042 301.085 125.876C301.114 125.709 301.204 125.567 301.419 125.472C301.719 125.339 301.974 125.508 302.184 125.979L304.037 130.134C304.228 130.563 304.163 130.822 303.863 130.955C303.692 131.031 303.382 130.912 303.019 130.56C302.657 130.207 302.301 129.929 301.984 129.736C301.667 129.543 301.229 129.481 300.626 129.568L278.3 132.306L277.421 130.335L294.459 114.986C294.842 114.636 295.066 114.332 295.106 114.135C295.158 113.906 295.184 113.561 295.215 113.112C295.246 112.662 295.365 112.353 295.579 112.258C295.836 112.144 296.091 112.313 296.29 112.815L298.589 118.03C298.78 118.458 298.716 118.717 298.415 118.85C298.287 118.907 298.108 118.91 297.965 118.819C297.822 118.729 297.629 118.583 297.459 118.376C297.259 118.157 297.097 118.024 296.985 117.945C296.873 117.867 296.749 117.819 296.663 117.857C296.449 117.952 296.156 118.159 295.772 118.508L282.078 130.528Z" fill="#127CCC"/>
<path d="M304.942 141.841L298.983 143.277C298.589 143.374 298.363 143.5 298.316 143.623C298.256 143.778 298.285 144.073 298.371 144.497L298.993 147.043C299.11 147.478 299.255 147.747 299.46 147.862C299.665 147.976 299.925 148.041 300.259 148.098C300.562 148.143 300.748 148.215 300.762 148.362C300.834 148.638 300.739 148.886 300.5 149.043L297.347 151.877C297.25 151.945 297.195 151.995 297.164 151.983C296.845 152.074 296.628 151.99 296.556 151.714C296.484 151.438 296.603 151.129 296.882 150.775C297.851 149.55 298.021 147.628 297.392 145.008C297.275 144.572 297.184 144.253 297.127 144.125C297.069 143.996 296.938 143.875 296.771 143.846C296.605 143.817 296.34 143.858 295.947 143.955L285.749 146.422C285.356 146.52 285.098 146.634 285.039 146.788C284.98 146.943 284.977 147.226 285.094 147.662L285.652 150.006C286.24 152.361 287.151 154.061 288.461 155.097C288.866 155.43 289.233 155.678 289.55 155.871C289.867 156.064 290.216 156.269 290.606 156.454C290.955 156.659 291.222 156.797 291.396 156.9C291.57 157.002 291.627 157.131 291.653 157.247C291.68 157.364 291.663 157.5 291.585 157.611C291.506 157.723 291.408 157.792 291.28 157.849C291.151 157.906 290.953 157.866 290.755 157.825L285.916 156.532C285.595 156.444 285.421 156.341 285.356 156.139C285.292 155.937 285.32 155.77 285.387 155.689C285.453 155.609 285.532 155.497 285.63 155.428C285.696 155.347 285.725 155.181 285.66 154.978L282.696 142.799C282.526 142.13 282.626 141.778 282.976 141.7C283.167 141.667 283.302 141.684 283.403 141.793C283.503 141.903 283.672 142.11 283.861 142.36C284.037 142.64 284.218 142.817 284.424 142.931C284.598 143.033 284.869 143.067 285.146 142.996L304.043 138.443C304.436 138.346 304.674 138.189 304.746 138.003C304.817 137.818 304.905 137.497 304.979 137.028C305.04 136.59 305.209 136.336 305.412 136.272C305.731 136.181 305.97 136.486 306.139 137.155L308.697 147.616C308.788 147.935 308.907 148.087 309.105 148.128C309.315 148.137 309.446 148.259 309.48 148.449C309.544 148.651 309.442 148.825 309.235 148.994L305.386 152.341C305.3 152.379 305.246 152.429 305.203 152.448C305.16 152.467 305.105 152.517 305.062 152.536C304.743 152.626 304.538 152.512 304.485 152.279C304.433 152.046 304.509 151.755 304.763 151.463C305.763 150.25 306.425 149.085 306.717 147.955C307.009 146.825 306.954 145.49 306.562 143.919L306.208 142.434C306.122 142.011 305.964 141.773 305.821 141.682C305.661 141.727 305.378 141.725 304.942 141.841Z" fill="#127CCC"/>
<path d="M309.368 176.767L303.227 176.642C302.838 176.634 302.605 176.687 302.483 176.817C302.393 176.96 302.329 177.219 302.329 177.681L302.258 180.458C302.251 180.845 302.322 181.121 302.516 181.267C302.709 181.412 302.933 181.569 303.212 181.676C303.491 181.784 303.653 181.917 303.636 182.053C303.634 182.336 303.489 182.528 303.189 182.661L299.413 184.617C299.327 184.655 299.241 184.693 299.21 184.681C298.865 184.655 298.703 184.521 298.693 184.269C298.707 183.955 298.888 183.67 299.255 183.456C300.005 182.892 300.5 182.16 300.752 181.227C301.004 180.295 301.136 179.21 301.169 178.016C301.169 177.554 301.171 177.271 301.137 177.081C301.092 176.921 301.004 176.781 300.88 176.733C300.725 176.673 300.453 176.64 300.064 176.633L289.662 176.395C289.421 176.373 289.238 176.48 289.085 176.599C288.952 176.76 288.838 176.965 288.731 177.243C288.624 177.522 288.54 177.738 288.438 177.912C288.347 178.054 288.207 178.142 287.997 178.133C287.64 178.137 287.456 177.783 287.465 177.112L287.549 172.175C287.558 171.504 287.763 171.156 288.109 171.183C288.287 171.181 288.399 171.259 288.488 171.4C288.576 171.54 288.671 171.754 288.793 172.085C288.927 172.385 289.011 172.63 289.161 172.794C289.28 172.947 289.466 173.018 289.707 173.04L309.316 173.482C309.735 173.501 310.012 173.43 310.126 173.225C310.259 173.063 310.409 172.766 310.576 172.333C310.773 171.912 310.961 171.701 311.202 171.722C311.547 171.749 311.712 172.06 311.691 172.762L311.453 184.668C311.443 184.877 311.532 185.018 311.749 185.101C311.935 185.173 312.023 185.313 312.025 185.492C312.028 185.67 311.895 185.832 311.637 185.946L307.044 188.084C306.885 188.129 306.768 188.155 306.706 188.131C306.36 188.105 306.198 187.972 306.188 187.719C306.19 187.436 306.348 187.213 306.672 187.018C307.984 186.103 308.889 185.137 309.448 184.146C310.007 183.154 310.297 181.845 310.317 180.22L310.387 177.727C310.406 177.308 310.334 177.032 310.203 176.911C310.122 176.844 309.831 176.768 309.368 176.767Z" fill="#127CCC"/>
<path d="M307.498 198.375L301.465 197.226C301.069 197.145 300.817 197.154 300.695 197.285C300.586 197.385 300.479 197.663 300.386 198.089L299.893 200.668C299.8 201.094 299.848 201.432 299.986 201.627C300.125 201.822 300.337 202.01 300.604 202.148C300.871 202.287 300.978 202.47 300.962 202.605C300.917 202.908 300.721 203.045 300.414 203.105L296.364 204.387C296.247 204.413 296.173 204.42 296.142 204.408C295.808 204.351 295.658 204.186 295.722 203.927C295.767 203.625 295.998 203.394 296.427 203.204C297.804 202.491 298.773 200.805 299.259 198.153C299.352 197.727 299.378 197.382 299.363 197.234C299.349 197.087 299.303 196.927 299.16 196.837C299.017 196.746 298.769 196.651 298.362 196.601L288.058 194.626C287.662 194.545 287.367 194.573 287.257 194.673C287.147 194.773 287.04 195.051 286.948 195.477L286.495 197.858C286.041 200.24 286.186 202.177 286.94 203.638C287.181 204.121 287.396 204.488 287.634 204.792C287.842 205.085 288.1 205.433 288.338 205.737C288.596 206.085 288.753 206.323 288.842 206.463C288.93 206.604 288.975 206.763 288.928 206.887C288.911 207.023 288.833 207.134 288.735 207.203C288.637 207.272 288.489 207.286 288.354 207.27C288.218 207.253 288.075 207.162 287.87 207.048L283.997 203.891C283.723 203.679 283.615 203.495 283.656 203.298C283.696 203.1 283.786 202.958 283.872 202.92C283.958 202.882 284.087 202.825 284.215 202.768C284.344 202.711 284.392 202.587 284.432 202.389L286.779 190.088C286.893 189.422 287.148 189.129 287.513 189.198C287.679 189.227 287.822 189.318 287.868 189.477C287.925 189.606 287.978 189.839 288.026 190.177C288.085 190.484 288.157 190.76 288.307 190.924C288.458 191.088 288.651 191.234 288.954 191.279L308.029 194.959C308.425 195.04 308.72 195.011 308.853 194.85C309.018 194.7 309.218 194.457 309.477 194.06C309.725 193.694 309.975 193.506 310.173 193.547C310.506 193.604 310.616 193.966 310.471 194.62L308.433 205.195C308.376 205.528 308.44 205.73 308.614 205.832C308.788 205.935 308.877 206.075 308.824 206.304C308.784 206.501 308.62 206.651 308.386 206.703L303.487 208.156C303.414 208.163 303.34 208.17 303.266 208.177C303.192 208.184 303.149 208.203 303.118 208.191C302.784 208.134 302.634 207.97 302.698 207.71C302.762 207.451 302.951 207.239 303.294 207.087C304.732 206.398 305.788 205.597 306.521 204.708C307.254 203.819 307.742 202.551 308.053 201.002L308.34 199.515C308.433 199.089 308.392 198.825 308.304 198.685C308.203 198.575 307.955 198.48 307.498 198.375Z" fill="#127CCC"/>
<path d="M287.253 223.636L278.689 224.815C278.456 224.867 278.253 224.931 278.132 225.062C277.979 225.181 277.803 225.362 277.603 225.604C277.403 225.847 277.227 226.028 277.086 226.115C276.946 226.203 276.798 226.218 276.612 226.146C276.333 226.039 276.304 225.744 276.483 225.28L278.714 219.571C278.904 219.076 279.154 218.889 279.464 219.008C279.681 219.091 279.788 219.274 279.786 219.558C279.784 219.841 279.813 220.136 279.799 220.45C279.797 220.733 279.904 220.916 280.121 221C280.276 221.059 280.517 221.081 280.855 221.034L287.971 220.291C288.104 219.668 288.322 219.007 288.608 218.265C288.881 217.553 289.181 216.959 289.488 216.438L283.147 213.964C282.93 213.88 282.751 213.883 282.599 214.002C282.446 214.12 282.251 214.258 282.051 214.501C281.851 214.743 281.687 214.893 281.534 215.012C281.382 215.131 281.246 215.114 281.06 215.043C280.719 214.911 280.683 214.543 280.933 213.893L282.736 209.298C282.974 208.679 283.29 208.411 283.6 208.53C283.755 208.589 283.855 208.699 283.889 208.889C283.934 209.049 283.944 209.301 283.961 209.627C283.978 209.953 283.988 210.205 284.064 210.376C284.097 210.567 284.229 210.688 284.415 210.76L302.818 217.944C303.128 218.063 303.369 218.084 303.552 217.977C303.767 217.882 303.943 217.702 304.174 217.471C304.405 217.24 304.538 217.079 304.648 216.979C304.788 216.891 304.936 216.877 305.091 216.936C305.401 217.056 305.437 217.424 305.187 218.074L303.232 223.25C302.019 226.404 300.398 228.585 298.431 229.816C297.771 230.236 297.03 230.59 296.263 230.828C295.496 231.065 294.671 231.174 293.851 231.178C293.031 231.182 292.24 231.02 291.527 230.746C290.04 230.174 288.936 229.252 288.246 227.993C287.463 226.698 287.159 225.268 287.253 223.636ZM301.86 221.267L292.017 217.446C290.964 217.041 290.211 217.426 289.728 218.589C289.252 219.826 289.022 220.98 289.056 222.093C289.091 223.207 289.425 224.187 290.06 225.035C290.694 225.882 291.672 226.578 292.942 227.066C293.686 227.352 294.447 227.503 295.254 227.529C296.062 227.556 296.856 227.435 297.654 227.21C298.421 226.972 299.119 226.637 299.729 226.162C300.76 225.423 301.498 224.429 301.998 223.13C302.433 222.091 302.356 221.458 301.86 221.267Z" fill="#127CCC"/>
<path d="M276.359 243.548L267.71 243.097C267.457 243.106 267.267 243.14 267.126 243.228C266.986 243.316 266.759 243.441 266.497 243.66C266.235 243.879 266.04 244.017 265.88 244.062C265.721 244.107 265.585 244.09 265.411 243.988C265.156 243.819 265.189 243.547 265.46 243.119L268.74 237.921C269.023 237.461 269.312 237.359 269.579 237.498C269.784 237.612 269.848 237.814 269.772 238.104C269.727 238.407 269.663 238.666 269.618 238.968C269.573 239.27 269.638 239.472 269.843 239.587C269.986 239.677 270.214 239.73 270.56 239.756L277.7 240.337C277.957 239.761 278.281 239.105 278.709 238.453C279.095 237.821 279.519 237.274 279.907 236.819L274.142 233.218C273.968 233.116 273.77 233.075 273.598 233.151C273.396 233.215 273.2 233.353 272.95 233.541C272.7 233.729 272.505 233.866 272.364 233.954C272.224 234.042 272.057 234.014 271.883 233.911C271.566 233.718 271.604 233.342 271.965 232.772L274.612 228.572C274.974 228.001 275.298 227.806 275.615 227.999C275.758 228.089 275.815 228.218 275.818 228.396C275.82 228.575 275.799 228.815 275.742 229.148C275.697 229.45 275.664 229.721 275.698 229.912C275.731 230.102 275.819 230.243 275.993 230.345L292.724 240.861C292.98 241.03 293.239 241.095 293.442 241.031C293.644 240.967 293.902 240.852 294.121 240.653C294.371 240.465 294.566 240.327 294.695 240.27C294.823 240.213 295.002 240.211 295.133 240.332C295.419 240.513 295.382 240.889 295.02 241.46L292.14 246.174C290.331 249.028 288.378 250.868 286.165 251.72C285.417 252.001 284.661 252.207 283.837 252.316C283.024 252.394 282.216 252.367 281.394 252.193C280.603 252.031 279.859 251.745 279.206 251.316C277.856 250.478 276.971 249.356 276.496 248.002C276.001 246.605 275.962 245.135 276.359 243.548ZM291.147 243.946L282.203 238.341C281.233 237.72 280.423 237.976 279.766 239.037C279.054 240.147 278.626 241.261 278.45 242.365C278.275 243.468 278.419 244.482 278.901 245.448C279.352 246.403 280.196 247.26 281.341 247.984C281.994 248.413 282.738 248.699 283.529 248.861C284.321 249.023 285.117 249.081 285.929 249.003C286.742 248.925 287.497 248.719 288.164 248.372C289.291 247.847 290.222 246.998 290.958 245.826C291.567 244.889 291.638 244.241 291.147 243.946Z" fill="#127CCC"/>
<path d="M276.584 263.406L261.622 250.695C261.41 250.507 261.193 250.423 260.971 250.445C260.75 250.466 260.504 250.549 260.254 250.737C259.985 250.882 259.79 251.02 259.63 251.065C259.471 251.11 259.335 251.093 259.173 250.96C258.91 250.717 258.979 250.353 259.379 249.868L262.605 246.103C263.048 245.599 263.391 245.447 263.634 245.647C263.766 245.769 263.823 245.897 263.794 246.064C263.766 246.23 263.714 246.459 263.595 246.768C263.476 247.077 263.455 247.317 263.445 247.527C263.436 247.736 263.574 247.931 263.787 248.12L278.717 260.819C279.011 261.073 279.228 261.157 279.399 261.081C279.559 261.036 279.89 260.915 280.3 260.682C280.729 260.492 281.036 260.432 281.186 260.597C281.46 260.809 281.349 261.192 280.906 261.696L277.711 265.472C277.268 265.976 276.937 266.097 276.674 265.854C276.512 265.721 276.514 265.438 276.638 265.024C276.773 264.579 276.849 264.289 276.902 264.06C276.954 263.832 276.877 263.661 276.584 263.406Z" fill="#127CCC"/>
<path d="M263.13 279.707L258.362 278.228C258.238 278.18 258.145 278.145 258.076 278.047C257.825 277.773 257.773 277.54 257.949 277.359C258.168 277.16 258.518 277.081 258.957 277.144C260.025 277.235 261 277.29 261.85 277.298C262.701 277.306 263.557 277.209 264.405 277.038C265.265 276.836 265.951 276.532 266.499 276.033C267.211 275.384 267.601 274.646 267.724 273.771C267.848 272.895 267.578 272.117 266.958 271.417C265.674 270.036 263.768 269.907 261.226 271.059L258.524 272.256C257.678 272.605 256.697 272.938 255.541 273.168C254.386 273.398 253.146 273.383 251.854 273.134C250.532 272.874 249.363 272.212 248.373 271.086C246.921 269.498 246.138 267.741 246.031 265.89C245.856 263.48 246.757 261.413 248.729 259.615C249.758 258.698 250.765 258.02 251.771 257.626L252.924 257.218C253.224 257.085 253.408 256.978 253.529 256.847C253.693 256.697 253.734 256.5 253.662 256.224C253.59 255.947 253.631 255.75 253.783 255.631C254.002 255.431 254.267 255.391 254.588 255.479L260.674 257.323C260.841 257.352 260.984 257.442 261.103 257.594C261.203 257.704 261.292 257.844 261.294 258.023C261.309 258.17 261.249 258.325 261.14 258.425C260.975 258.575 260.742 258.627 260.446 258.655C260.163 258.653 259.491 258.643 258.454 258.563C257.417 258.484 256.628 258.5 256.154 258.531C255.311 258.597 254.541 258.656 253.814 258.696C253.075 258.767 252.43 258.873 251.822 259.066C251.214 259.258 250.652 259.61 250.147 260.09C249.423 260.77 248.947 261.545 248.719 262.416C248.491 263.286 248.504 264.179 248.769 265.062C249.034 265.945 249.502 266.763 250.172 267.518C251.975 269.489 254.662 269.812 258.242 268.456L260.787 267.482C262.252 266.91 263.66 266.671 265.066 266.715C266.43 266.777 267.584 267.292 268.504 268.321C269.205 269.087 269.618 269.956 269.781 271.012C269.956 272.038 269.847 273.061 269.498 274.062C269.148 275.064 268.575 275.908 267.851 276.588C267.369 277.007 266.912 277.363 266.502 277.596C266.062 277.817 265.633 278.007 265.204 278.197C264.756 278.344 264.487 278.489 264.42 278.57C264.323 278.639 264.294 278.806 264.23 279.065C264.197 279.336 264.137 279.491 264.083 279.541C263.611 279.75 263.377 279.802 263.13 279.707Z" fill="#127CCC"/>
<path d="M228.061 284.962C227.858 284.565 227.834 284.165 227.957 283.751C228.081 283.337 228.335 283.044 228.69 282.862C229.088 282.66 229.489 282.636 229.946 282.741C230.392 282.877 230.728 283.113 230.9 283.498C231.091 283.927 231.146 284.338 230.992 284.74C230.837 285.142 230.57 285.466 230.13 285.687C229.775 285.87 229.374 285.893 228.941 285.726C228.569 285.583 228.244 285.317 228.061 284.962Z" fill="#127CCC"/>
<path d="M197.899 309.462L194.579 305.701C194.479 305.591 194.441 305.505 194.414 305.389C194.347 305.008 194.43 304.792 194.652 304.77C194.959 304.711 195.269 304.83 195.625 305.109C196.478 305.757 197.275 306.276 197.99 306.728C198.705 307.181 199.487 307.553 200.305 307.832C201.123 308.111 201.907 308.199 202.595 308.074C203.518 307.896 204.251 307.468 204.827 306.802C205.404 306.136 205.577 305.316 205.397 304.395C205.039 302.553 203.47 301.453 200.691 301.094L197.745 300.706C196.837 300.57 195.828 300.324 194.732 299.938C193.635 299.552 192.572 298.894 191.572 297.978C190.573 297.061 189.922 295.888 189.661 294.438C189.261 292.332 189.493 290.434 190.376 288.786C191.48 286.655 193.336 285.345 195.942 284.857C197.289 284.593 198.509 284.566 199.572 284.762L200.759 285.005C201.062 285.05 201.314 285.041 201.462 285.027C201.653 284.994 201.817 284.844 201.912 284.597C202.007 284.349 202.141 284.187 202.331 284.154C202.608 284.083 202.856 284.178 203.075 284.44L207.297 289.188C207.428 289.309 207.485 289.438 207.519 289.628C207.564 289.787 207.536 289.954 207.457 290.066C207.367 290.208 207.269 290.277 207.11 290.322C206.888 290.344 206.659 290.291 206.392 290.153C206.137 289.984 205.596 289.634 204.73 289.017C203.896 288.412 203.23 288.014 202.777 287.804C202.038 287.414 201.318 287.066 200.672 286.711C200.014 286.387 199.394 286.149 198.77 286.015C198.145 285.881 197.504 285.883 196.785 285.997C195.82 286.194 194.993 286.586 194.355 287.228C193.686 287.858 193.252 288.614 193.012 289.516C192.772 290.417 192.73 291.359 192.929 292.323C193.453 294.938 195.554 296.598 199.324 297.338L202.013 297.84C203.577 298.122 204.909 298.634 206.03 299.42C207.163 300.175 207.862 301.225 208.127 302.569C208.314 303.564 208.217 304.556 207.817 305.503C207.418 306.449 206.813 307.282 205.953 307.945C205.124 308.62 204.212 309.05 203.216 309.235C202.601 309.354 202.01 309.41 201.529 309.367C201.035 309.355 200.566 309.281 200.096 309.207C199.627 309.133 199.355 309.099 199.238 309.125C199.122 309.151 198.969 309.27 198.824 309.463C198.679 309.655 198.526 309.774 198.44 309.812C198.297 309.722 198.069 309.669 197.899 309.462Z" fill="#127CCC"/>
<path d="M176.91 311.223L169.407 289.383C169.304 289.095 169.166 288.9 168.973 288.754C168.78 288.609 168.532 288.514 168.253 288.406C167.962 288.33 167.757 288.216 167.602 288.156C167.49 288.078 167.402 287.937 167.399 287.759C167.382 287.433 167.663 287.257 168.273 287.243L173.709 287.168C174.215 287.15 174.47 287.319 174.475 287.676C174.489 287.823 174.399 287.966 174.258 288.054C174.118 288.142 173.934 288.249 173.689 288.332C173.443 288.415 173.272 288.491 173.131 288.579C172.991 288.667 172.924 288.748 172.939 288.895C172.953 289.043 173.006 289.276 173.108 289.564L174.58 293.786C174.663 294.031 175.016 294.131 175.552 294.124L181.882 294.038C182.313 294.026 182.535 294.005 182.632 293.936C182.73 293.867 182.825 293.62 182.992 293.187L183.603 291.044C183.747 290.39 183.821 289.921 183.835 289.607C183.835 289.145 183.682 288.803 183.439 288.602C183.164 288.391 182.835 288.229 182.432 288.074C182.03 287.919 181.794 287.792 181.81 287.657C181.817 287.269 182.11 287.062 182.677 287.067L187.219 287.004C187.725 286.985 187.98 287.154 187.978 287.437C187.98 287.616 187.902 287.728 187.718 287.835C187.535 287.941 187.277 288.056 186.922 288.238C186.579 288.391 186.255 288.585 186.036 288.785C185.817 288.985 185.648 289.239 185.56 289.56L179.105 311.25L176.91 311.223ZM178.956 306.827L182.203 295.794C182.203 295.794 182.226 295.732 182.262 295.64C182.298 295.547 182.302 295.442 182.326 295.38C182.312 295.233 182.231 295.166 182.052 295.168L175.47 295.264C175.217 295.273 175.108 295.373 175.098 295.582L178.956 306.827Z" fill="#127CCC"/>
<path d="M159.946 289.933C157.329 295.351 155.017 300.532 152.99 305.432C152.705 306.174 152.522 306.742 152.484 307.118C152.451 307.389 152.515 307.592 152.677 307.725C152.839 307.858 153.063 308.016 153.392 308.178C153.722 308.34 153.927 308.454 154.101 308.556C154.232 308.678 154.308 308.849 154.268 309.047C154.211 309.38 153.942 309.525 153.441 309.439L148.939 308.843C148.5 308.781 148.288 308.593 148.314 308.248C148.354 308.05 148.604 307.863 149.083 307.727C149.562 307.592 149.979 307.433 150.291 307.269C150.603 307.105 150.925 306.732 151.158 306.218L160.393 285.81L162.555 286.109L166.874 308.641C166.968 309.139 167.109 309.512 167.271 309.646C167.421 309.81 167.695 310.022 168.094 310.282C168.492 310.541 168.68 310.791 168.628 311.02C168.595 311.291 168.295 311.424 167.794 311.338L162.143 310.584C161.704 310.522 161.492 310.334 161.518 309.989C161.547 309.823 161.625 309.711 161.797 309.635C161.968 309.559 162.171 309.495 162.447 309.424C162.724 309.352 162.926 309.288 163.086 309.243C163.245 309.198 163.312 309.117 163.317 309.012C163.326 308.803 163.29 308.434 163.209 307.906L159.946 289.933Z" fill="#127CCC"/>
<path d="M138.435 303.597L140.294 297.745C140.405 297.362 140.427 297.122 140.338 296.981C140.25 296.841 139.971 296.733 139.568 296.579L137.061 295.792C136.646 295.668 136.331 295.653 136.105 295.779C135.879 295.905 135.702 296.086 135.502 296.328C135.302 296.571 135.162 296.659 134.995 296.63C134.704 296.554 134.566 296.359 134.549 296.033L133.738 291.852C133.711 291.735 133.735 291.673 133.716 291.63C133.804 291.309 133.999 291.171 134.247 291.267C134.538 291.343 134.757 291.605 134.875 292.04C135.419 293.492 137.007 294.635 139.577 295.446C140.023 295.582 140.313 295.658 140.48 295.687C140.647 295.716 140.776 295.659 140.897 295.528C141.019 295.397 141.114 295.15 141.225 294.767L144.383 284.8C144.506 284.386 144.527 284.145 144.439 284.005C144.351 283.865 144.084 283.726 143.669 283.602L141.359 282.856C139.049 282.11 137.119 282.042 135.549 282.609C135.058 282.776 134.66 282.978 134.317 283.13C133.993 283.324 133.638 283.507 133.271 283.721C132.905 283.935 132.635 284.08 132.476 284.125C132.304 284.201 132.156 284.215 132.032 284.168C131.909 284.12 131.796 284.041 131.739 283.913C131.682 283.784 131.656 283.668 131.703 283.544C131.751 283.42 131.841 283.278 131.986 283.085L135.599 279.611C135.83 279.381 136.044 279.286 136.23 279.357C136.416 279.429 136.559 279.519 136.586 279.636C136.612 279.753 136.638 279.869 136.707 279.967C136.734 280.083 136.877 280.174 137.063 280.245L149.02 284.027C149.651 284.235 149.933 284.52 149.845 284.841C149.785 284.996 149.695 285.139 149.547 285.153C149.388 285.198 149.166 285.219 148.839 285.236C148.513 285.252 148.248 285.292 148.065 285.399C147.882 285.506 147.736 285.699 147.617 286.008L141.788 304.496C141.677 304.879 141.675 305.162 141.782 305.345C141.901 305.498 142.164 305.741 142.507 306.05C142.85 306.36 143.008 306.598 142.925 306.814C142.837 307.135 142.455 307.202 141.793 306.982L131.514 303.739C131.192 303.651 130.971 303.672 130.868 303.846C130.735 304.008 130.575 304.053 130.377 304.012C130.191 303.941 130.072 303.788 130.031 303.524L129.153 298.501C129.146 298.427 129.15 298.323 129.162 298.292C129.155 298.218 129.167 298.187 129.148 298.144C129.236 297.823 129.431 297.685 129.679 297.78C129.927 297.876 130.096 298.083 130.237 298.457C130.758 299.97 131.421 301.113 132.247 301.927C133.072 302.741 134.24 303.403 135.763 303.883L137.224 304.338C137.639 304.462 137.911 304.496 138.052 304.408C138.173 304.277 138.311 304.011 138.435 303.597Z" fill="#127CCC"/>
<path d="M106.208 289.251L109.519 284.064C109.723 283.717 109.807 283.501 109.73 283.329C109.685 283.17 109.472 282.982 109.093 282.765L106.754 281.262C106.406 281.057 106.146 280.993 105.913 281.045C105.71 281.109 105.441 281.254 105.191 281.442C104.941 281.629 104.769 281.705 104.657 281.627C104.402 281.458 104.307 281.244 104.383 280.953L104.656 276.728C104.661 276.623 104.684 276.561 104.708 276.5C104.889 276.214 105.092 276.15 105.328 276.276C105.614 276.457 105.747 276.757 105.729 277.176C105.834 278.104 106.197 278.918 106.86 279.599C107.511 280.311 108.365 280.958 109.417 281.647C109.784 281.895 110.082 282.045 110.237 282.104C110.392 282.164 110.539 282.15 110.68 282.062C110.821 281.974 110.978 281.75 111.213 281.415L116.797 272.63C116.912 272.425 116.952 272.228 116.918 272.037C116.854 271.835 116.727 271.609 116.558 271.402C116.389 271.195 116.231 270.957 116.143 270.816C116.067 270.645 116.083 270.509 116.186 270.336C116.378 270.019 116.755 270.058 117.327 270.42L121.495 273.087C122.067 273.449 122.263 273.773 122.07 274.089C121.98 274.232 121.851 274.289 121.703 274.303C121.556 274.317 121.284 274.284 120.993 274.208C120.659 274.15 120.419 274.129 120.228 274.162C120.037 274.195 119.854 274.302 119.74 274.507L109.167 290.992C108.919 291.359 108.855 291.618 108.962 291.801C109.039 291.973 109.215 292.254 109.492 292.644C109.738 293.022 109.809 293.298 109.695 293.503C109.514 293.788 109.138 293.75 108.565 293.388L98.4701 286.986C98.2961 286.883 98.1173 286.885 97.9649 287.004C97.8125 287.123 97.6647 287.137 97.4907 287.035C97.3166 286.932 97.2831 286.742 97.3281 286.44L97.7245 281.339C97.784 281.184 97.7887 281.08 97.8435 281.03C98.0243 280.744 98.2269 280.68 98.4629 280.807C98.687 280.964 98.8016 281.221 98.8377 281.59C98.9461 283.158 99.2975 284.464 99.8726 285.466C100.448 286.468 101.416 287.373 102.754 288.242L104.869 289.588C105.236 289.836 105.496 289.9 105.655 289.855C105.772 289.829 105.96 289.617 106.208 289.251Z" fill="#127CCC"/>
<path d="M88.6479 276.358L92.7815 271.806C93.0363 271.514 93.1624 271.279 93.117 271.119C93.0716 270.96 92.9022 270.753 92.5898 270.455L90.6413 268.676C90.2979 268.367 90.0309 268.229 89.7664 268.269C89.5138 268.278 89.2684 268.361 88.9992 268.506C88.73 268.651 88.5394 268.684 88.4392 268.575C88.227 268.387 88.1744 268.153 88.2933 267.844L89.3077 263.726C89.3433 263.634 89.3671 263.572 89.3909 263.51C89.6338 263.248 89.8244 263.215 90.0367 263.403C90.2489 263.591 90.3397 263.91 90.2781 264.348C90.1768 265.906 91.1314 267.587 93.13 269.42C93.4734 269.73 93.7166 269.93 93.8597 270.02C94.0027 270.111 94.1505 270.097 94.3101 270.052C94.4388 269.995 94.6579 269.795 94.9436 269.514L101.985 261.751C102.282 261.439 102.408 261.204 102.363 261.044C102.318 260.885 102.16 260.647 101.848 260.349L100.049 258.735C98.2513 257.121 96.5252 256.244 94.8712 256.105C94.3588 256.05 93.8964 256.049 93.5271 256.085C93.1577 256.12 92.7573 256.144 92.3451 256.198C91.9328 256.252 91.6493 256.25 91.4705 256.252C91.2918 256.254 91.1368 256.195 91.0676 256.097C90.9675 255.988 90.8983 255.89 90.9148 255.755C90.9314 255.619 90.948 255.483 91.0575 255.383C91.1671 255.284 91.3076 255.196 91.522 255.101L96.2513 253.441C96.5825 253.32 96.7922 253.329 96.9234 253.451C97.0856 253.584 97.1429 253.713 97.1263 253.848C97.1216 253.953 97.105 254.089 97.1003 254.193C97.0956 254.298 97.1529 254.426 97.3032 254.591L106.614 263.034C107.119 263.477 107.26 263.851 107.017 264.112C106.896 264.243 106.767 264.3 106.6 264.271C106.434 264.243 106.217 264.159 105.907 264.04C105.597 263.921 105.337 263.856 105.115 263.878C104.894 263.899 104.679 263.994 104.479 264.237L91.4475 278.606C91.1808 278.929 91.0547 279.164 91.1192 279.367C91.1837 279.569 91.2745 279.888 91.4774 280.285C91.6684 280.714 91.7091 280.978 91.5329 281.159C91.3019 281.389 90.9491 281.289 90.4435 280.846L82.4447 273.617C82.2134 273.386 81.9845 273.334 81.8011 273.441C81.6177 273.548 81.4509 273.519 81.2887 273.386C81.1265 273.252 81.093 273.062 81.1882 272.814L82.4808 267.881C82.5164 267.788 82.5402 267.726 82.595 267.676C82.6188 267.614 82.6307 267.583 82.6544 267.522C82.8973 267.26 83.0879 267.227 83.3002 267.415C83.4815 267.591 83.5532 267.867 83.5153 268.243C83.3712 269.82 83.4699 271.136 83.9045 272.226C84.3081 273.304 85.1002 274.39 86.2926 275.452L87.423 276.49C87.7355 276.788 87.9715 276.914 88.1621 276.881C88.1001 276.857 88.3383 276.7 88.6479 276.358Z" fill="#127CCC"/>
<path d="M77.5352 245.959L80.9489 238.008C81.0321 237.791 81.0725 237.594 81.039 237.403C81.0055 237.213 80.9528 236.98 80.862 236.661C80.7712 236.342 80.7186 236.109 80.7042 235.961C80.7017 235.783 80.7802 235.671 80.9446 235.521C81.1827 235.364 81.4307 235.46 81.7384 235.862L85.4814 240.745C85.8202 241.159 85.8371 241.485 85.556 241.661C85.3607 241.798 85.151 241.789 84.9268 241.632C84.6598 241.493 84.4047 241.324 84.1687 241.198C83.9016 241.06 83.6919 241.05 83.5276 241.2C83.418 241.3 83.2728 241.493 83.1229 241.79L80.0894 248.29C80.564 248.721 81.0339 249.257 81.4992 249.897C81.9453 250.495 82.3294 251.068 82.6206 251.606L88.0176 247.47C88.1819 247.32 88.2724 247.178 88.2817 246.968C88.2911 246.759 88.2385 246.526 88.1358 246.238C88.0331 245.95 87.9805 245.717 87.978 245.538C87.9754 245.36 88.023 245.236 88.1754 245.117C88.4684 244.91 88.8093 245.041 89.2363 245.596L92.2446 249.522C92.6406 250.064 92.7076 250.445 92.4457 250.664C92.3051 250.752 92.1455 250.797 91.9905 250.737C91.8356 250.678 91.5877 250.582 91.3325 250.413C91.0774 250.244 90.8295 250.149 90.6316 250.108C90.4338 250.068 90.2742 250.113 90.1217 250.232L74.4546 262.203C74.2045 262.391 74.0474 262.614 74.038 262.824C74.0286 263.033 74.0694 263.297 74.1602 263.616C74.2629 263.904 74.3155 264.137 74.3299 264.285C74.3443 264.432 74.2849 264.587 74.1324 264.706C73.8705 264.924 73.5105 264.75 73.1144 264.208L69.6936 259.875C67.6277 257.199 66.5938 254.707 66.5419 252.345C66.5246 251.557 66.6122 250.775 66.8165 249.966C67.0208 249.157 67.3372 248.427 67.7776 247.744C68.2179 247.062 68.7393 246.446 69.3491 245.97C70.6114 245 71.9552 244.559 73.4041 244.584C74.803 244.554 76.1904 245.016 77.5352 245.959ZM72.0146 259.667L80.3817 253.266C81.2844 252.583 81.3647 251.727 80.568 250.746C79.764 249.692 78.865 248.884 77.9017 248.336C76.9385 247.788 75.9183 247.574 74.8531 247.661C73.7879 247.748 72.7159 248.223 71.606 249.074C70.9962 249.55 70.4557 250.123 70.0154 250.805C69.575 251.488 69.2586 252.218 69.0233 253.015C68.8309 253.793 68.7433 254.576 68.8464 255.325C68.9689 256.579 69.4417 257.755 70.2647 258.852C71.0042 259.705 71.5692 259.993 72.0146 259.667Z" fill="#127CCC"/>
<path d="M66.0878 226.329L70.9368 219.178C71.051 218.974 71.1223 218.788 71.1198 218.61C71.1173 218.431 71.1076 218.179 71.0596 217.841C71.0117 217.503 71.002 217.251 71.0186 217.115C71.047 216.949 71.1566 216.849 71.34 216.742C71.5973 216.628 71.8333 216.754 72.0744 217.237L74.8336 222.736C75.0747 223.219 75.0297 223.521 74.7605 223.666C74.5461 223.761 74.3482 223.72 74.136 223.532C73.9237 223.344 73.6805 223.144 73.4683 222.956C73.256 222.768 73.0272 222.715 72.8438 222.822C72.7151 222.879 72.5389 223.06 72.327 223.333L68.1062 229.129C68.4712 229.66 68.8435 230.264 69.211 230.973C69.5595 231.64 69.815 232.271 69.9775 232.866L76.0617 229.81C76.2452 229.703 76.3666 229.572 76.407 229.375C76.4473 229.177 76.4376 228.925 76.4088 228.63C76.3799 228.335 76.3702 228.083 76.3677 227.904C76.3961 227.738 76.4747 227.626 76.6581 227.519C76.9702 227.355 77.2754 227.579 77.6048 228.203L79.8246 232.606C80.1229 233.218 80.1161 233.605 79.804 233.769C79.6635 233.857 79.4966 233.829 79.3536 233.738C79.2105 233.648 79.0174 233.502 78.7741 233.302C78.5309 233.102 78.3377 232.957 78.1637 232.855C77.9896 232.752 77.799 232.785 77.6275 232.861L59.9989 241.7C59.7297 241.845 59.5535 242.026 59.4703 242.242C59.418 242.471 59.3968 242.711 59.4566 243.018C59.5164 243.325 59.5261 243.577 59.5096 243.713C59.4811 243.879 59.4025 243.991 59.231 244.067C58.9189 244.231 58.6256 243.976 58.3154 243.395L55.7305 238.461C54.2149 235.465 53.6408 232.795 54.0704 230.475C54.1889 229.704 54.4242 228.908 54.7716 228.189C55.1309 227.44 55.5712 226.758 56.1237 226.154C56.6761 225.55 57.3168 225.086 58.0267 224.72C59.4346 224.019 60.862 223.823 62.2778 224.119C63.6507 224.434 64.943 225.144 66.0878 226.329ZM58.102 238.77L67.5404 234.023C68.5505 233.524 68.7977 232.696 68.2273 231.589C67.6186 230.397 66.9148 229.452 66.054 228.73C65.1931 228.009 64.2443 227.608 63.1884 227.486C62.1207 227.395 60.965 227.625 59.7286 228.25C59.0306 228.585 58.378 229.079 57.8375 229.652C57.2541 230.244 56.8256 230.896 56.4664 231.645C56.119 232.363 55.9265 233.141 55.8509 233.893C55.7208 235.157 55.9601 236.384 56.5878 237.62C57.0891 238.629 57.6184 239.01 58.102 238.77Z" fill="#127CCC"/>
<path d="M48.9497 216.225L67.5408 210.063C67.829 209.961 67.9934 209.811 68.0957 209.638C68.179 209.421 68.2312 209.193 68.2453 208.879C68.2593 208.565 68.2687 208.355 68.2971 208.189C68.3256 208.022 68.4352 207.922 68.6067 207.846C68.9379 207.725 69.2312 207.98 69.4247 208.587L71.0012 213.275C71.2139 213.925 71.176 214.301 70.8568 214.391C70.6971 214.436 70.5303 214.407 70.4182 214.329C70.3061 214.25 70.1368 214.043 69.9483 213.793C69.7598 213.543 69.5476 213.355 69.3735 213.253C69.1995 213.15 68.9469 213.16 68.6705 213.231L50.0794 219.392C49.7173 219.501 49.5219 219.639 49.4816 219.837C49.4412 220.034 49.3962 220.336 49.3537 220.817C49.3111 221.297 49.1731 221.564 48.9706 221.628C48.6513 221.718 48.389 221.475 48.1764 220.826L46.5998 216.137C46.3753 215.519 46.4441 215.155 46.8063 215.045C47.0088 214.981 47.2449 215.108 47.5335 215.467C47.834 215.796 48.0535 216.057 48.2275 216.16C48.3349 216.343 48.5875 216.334 48.9497 216.225Z" fill="#127CCC"/>
<path d="M41.9224 195.739L45.7353 192.484C45.833 192.415 45.9306 192.346 46.0474 192.32C46.4286 192.254 46.6455 192.337 46.6672 192.559C46.727 192.866 46.6081 193.175 46.3295 193.529C45.682 194.38 45.1321 195.163 44.6798 195.876C44.2276 196.59 43.8373 197.327 43.5472 198.174C43.269 198.99 43.1505 199.761 43.3083 200.46C43.4878 201.381 43.9054 202.145 44.5851 202.691C45.2528 203.267 46.0751 203.441 46.9854 203.294C48.8178 202.969 49.9486 201.417 50.3349 198.654L50.7496 195.726C50.8848 194.819 51.1604 193.825 51.5766 192.743C51.9929 191.661 52.6498 190.6 53.5856 189.646C54.5024 188.65 55.6959 188.044 57.178 187.798C59.3178 187.414 61.2078 187.679 62.8482 188.594C64.9725 189.73 66.2752 191.616 66.7371 194.207C66.9908 195.582 66.9894 196.789 66.7948 197.85L66.5526 199.034C66.5076 199.337 66.4863 199.577 66.5317 199.736C66.5653 199.927 66.7155 200.091 66.9634 200.186C67.2114 200.282 67.3735 200.415 67.407 200.605C67.4478 200.87 67.3526 201.117 67.1216 201.348L62.3228 205.501C62.2014 205.632 62.0727 205.689 61.8821 205.722C61.7225 205.767 61.5556 205.738 61.4435 205.66C61.3005 205.569 61.2313 205.472 61.1859 205.312C61.1643 205.091 61.2165 204.862 61.3545 204.596C61.5235 204.342 61.9044 203.814 62.521 202.95C63.1376 202.087 63.5541 201.466 63.7635 201.014C64.1538 200.277 64.5321 199.571 64.8867 198.926C65.2413 198.282 65.4791 197.663 65.6121 197.04C65.7451 196.417 65.7851 195.758 65.6272 195.058C65.4597 194.106 65.0658 193.28 64.4338 192.611C63.8017 191.942 63.0554 191.478 62.152 191.237C61.2486 190.996 60.3048 190.952 59.3207 191.106C56.6829 191.583 54.9925 193.666 54.2256 197.418L53.6963 200.089C53.3853 201.638 52.8429 202.956 52.0884 204.085C51.3028 205.203 50.2524 205.899 48.918 206.132C47.9219 206.317 46.94 206.187 45.9602 205.775C45.0114 205.375 44.1887 204.739 43.5231 203.879C42.8575 203.02 42.4564 202.12 42.2698 201.126C42.162 200.481 42.1235 199.934 42.135 199.441C42.1775 198.961 42.22 198.48 42.3245 198.023C42.429 197.566 42.4622 197.295 42.4359 197.179C42.4096 197.062 42.3213 196.922 42.0972 196.764C41.904 196.619 41.7847 196.467 41.7775 196.393C41.6319 196.124 41.7152 195.908 41.9224 195.739Z" fill="#127CCC"/>
<path d="M55.6457 163.568C56.0652 163.588 56.4133 163.793 56.7138 164.121C57.0144 164.45 57.1243 164.811 57.1055 165.23C57.0749 165.68 56.8702 166.027 56.5297 166.357C56.1892 166.688 55.8151 166.828 55.4076 166.778C54.9261 166.735 54.5661 166.561 54.2775 166.201C53.9888 165.842 53.8908 165.449 53.9333 164.969C53.9831 164.562 54.1568 164.203 54.5045 163.946C54.8331 163.646 55.2263 163.549 55.6457 163.568Z" fill="#127CCC"/>
<path d="M50.1892 125.122L55.1145 124.248C55.2313 124.222 55.3362 124.227 55.4601 124.274C55.832 124.417 55.9513 124.57 55.8562 124.817C55.7491 125.095 55.4753 125.345 55.0702 125.473C54.0648 125.867 53.1953 126.278 52.4425 126.663C51.6897 127.048 50.9752 127.519 50.2988 128.075C49.6224 128.631 49.1748 129.24 48.9132 129.921C48.5683 130.817 48.5619 131.667 48.8509 132.488C49.1399 133.309 49.7337 133.892 50.6444 134.207C52.4227 134.855 54.138 134.095 55.907 131.9L57.7545 129.594C58.3426 128.897 59.0903 128.155 59.9739 127.43C60.9004 126.686 61.9653 126.137 63.2852 125.757C64.6052 125.377 65.9256 125.459 67.332 125.965C69.3583 126.708 70.8606 127.889 71.808 129.496C73.0512 131.536 73.2437 133.811 72.3233 136.297C71.8548 137.607 71.2408 138.649 70.5432 139.445L69.736 140.342C69.536 140.584 69.4217 140.789 69.3623 140.944C69.2909 141.129 69.3435 141.362 69.5129 141.569C69.6823 141.777 69.7468 141.979 69.6873 142.133C69.5803 142.412 69.3731 142.581 69.0347 142.628L62.7822 143.808C62.6226 143.854 62.4557 143.825 62.3008 143.765C62.1458 143.706 62.0337 143.627 61.9455 143.487C61.8572 143.346 61.8428 143.199 61.9022 143.044C61.9855 142.828 62.1498 142.678 62.419 142.533C62.6881 142.388 63.2885 142.122 64.2319 141.704C65.1753 141.286 65.8733 140.951 66.3068 140.656C67.0095 140.216 67.7003 139.808 68.3172 139.406C68.9342 139.004 69.4772 138.61 69.9082 138.136C70.3273 137.694 70.6891 137.123 70.9507 136.443C71.3075 135.515 71.3687 134.616 71.1774 133.726C70.986 132.836 70.5374 132.06 69.9053 131.391C69.2733 130.722 68.4769 130.203 67.5353 129.876C65.0131 128.942 62.5116 129.897 59.9566 132.748L58.1423 134.783C57.0922 135.941 55.9585 136.854 54.7149 137.405C53.4595 137.987 52.1964 138.034 50.9139 137.576C49.9532 137.207 49.1806 136.626 48.546 135.778C47.9424 134.943 47.5651 133.981 47.4022 132.925C47.2394 131.868 47.3053 130.864 47.6739 129.905C47.8999 129.318 48.133 128.804 48.4235 128.419C48.6829 128.022 48.9734 127.636 49.2829 127.294C49.5925 126.952 49.7615 126.697 49.7972 126.604C49.8447 126.481 49.7993 126.321 49.7157 126.076C49.6321 125.831 49.5867 125.672 49.6224 125.579C49.7604 125.312 49.9247 125.163 50.1892 125.122Z" fill="#127CCC"/>
<path d="M59.5569 106.221L82.1271 111.173C82.4298 111.219 82.6824 111.209 82.8968 111.114C83.1112 111.019 83.3494 110.862 83.5685 110.663C83.7876 110.463 83.9829 110.325 84.1115 110.268C84.2402 110.211 84.3879 110.197 84.562 110.299C84.8481 110.48 84.865 110.806 84.5699 111.296L81.8186 115.953C81.5782 116.393 81.2781 116.526 80.992 116.345C80.8489 116.254 80.7797 116.157 80.7772 115.978C80.7747 115.8 80.784 115.591 80.8363 115.362C80.9004 115.103 80.9098 114.894 80.9264 114.758C80.912 114.61 80.8547 114.482 80.7426 114.403C80.5995 114.313 80.3707 114.26 80.0799 114.184L75.7084 113.248C75.4367 113.215 75.1747 113.433 74.8915 113.892L71.6952 119.336C71.4905 119.684 71.3953 119.931 71.3907 120.036C71.417 120.152 71.5434 120.379 71.844 120.707L73.3467 122.35C73.8094 122.812 74.1838 123.133 74.4818 123.283C74.8919 123.512 75.2565 123.581 75.5567 123.448C75.8569 123.315 76.1809 123.12 76.5286 122.864C76.8882 122.576 77.1026 122.481 77.2147 122.559C77.5628 122.764 77.5798 123.09 77.2727 123.611L74.9975 127.493C74.7571 127.933 74.4879 128.078 74.2328 127.908C74.0897 127.818 74.0324 127.689 74.0108 127.468C74.0202 127.259 74.0223 126.976 74.0721 126.569C74.1218 126.162 74.1358 125.848 74.076 125.541C74.0472 125.246 73.9016 124.977 73.6703 124.746L58.4287 107.952L59.5569 106.221ZM62.2459 110.236L70.0098 118.724C70.0098 118.724 70.0599 118.779 70.1409 118.845C70.222 118.912 70.2721 118.967 70.3532 119.033C70.4653 119.112 70.582 119.086 70.6844 118.912L74.0068 113.233C74.1211 113.028 74.1066 112.881 73.9016 112.766L62.2459 110.236Z" fill="#127CCC"/>
<path d="M86.589 102.808C83.3058 97.7477 80.0896 93.0678 76.9286 88.7995C76.4324 88.1473 76.0317 87.7092 75.7574 87.4972C75.5643 87.352 75.3474 87.2685 75.1448 87.3326C74.9423 87.3968 74.685 87.5108 74.3921 87.7176C74.0991 87.9244 73.8728 88.0503 73.7131 88.0954C73.5535 88.1405 73.3867 88.1118 73.2245 87.9785C72.9503 87.7665 72.9953 87.4644 73.3168 87.0911L76.1762 83.5408C76.4547 83.1865 76.7311 83.1153 77.0053 83.3272C77.1675 83.4606 77.1963 83.7556 77.0371 84.2623C76.8778 84.769 76.828 85.1758 76.7902 85.5517C76.7524 85.9276 76.9124 86.3441 77.2583 86.8321L89.9536 105.345L88.5965 107.023L67.025 99.0118C66.5291 98.8211 66.1644 98.7518 65.9619 98.8159C65.7284 98.8681 65.4282 99.0011 64.9994 99.1912C64.5706 99.3812 64.2751 99.4096 64.0819 99.2643C63.8697 99.0762 63.9147 98.7741 64.2481 98.3698L67.8098 93.9182C68.0884 93.5639 68.3648 93.4927 68.639 93.7047C68.7821 93.7952 68.8275 93.9546 68.799 94.1212C68.7705 94.2877 68.7183 94.5161 68.6541 94.7754C68.559 95.0227 68.5067 95.2511 68.4902 95.3867C68.4617 95.5533 68.4999 95.6389 68.581 95.7056C68.7431 95.839 69.0721 96.001 69.568 96.1917L86.589 102.808Z" fill="#127CCC"/>
<path d="M86.1901 77.2045L90.1951 81.8683C90.4336 82.173 90.6697 82.2992 90.8174 82.2851C90.9651 82.2709 91.2343 82.126 91.563 81.8264L93.573 80.1147C93.9017 79.8151 94.0707 79.5607 94.0919 79.3204C94.1132 79.0801 94.0415 78.804 93.9388 78.5161C93.8361 78.2281 93.8455 78.0187 93.9431 77.9498C94.1622 77.7501 94.4148 77.7407 94.6818 77.8789L98.6486 79.4044C98.7416 79.4401 98.7917 79.4949 98.8537 79.5187C99.0731 79.7806 99.0948 80.0019 98.8875 80.1707C98.6685 80.3704 98.3301 80.4177 97.9153 80.2937C96.3946 79.9929 94.5864 80.7173 92.5334 82.4481C92.1738 82.7357 91.9857 82.9473 91.8642 83.0781C91.7738 83.2208 91.7262 83.3445 91.7716 83.5039C91.817 83.6634 91.9745 83.9014 92.225 84.1752L99.0447 92.1577C99.3142 92.4743 99.5384 92.6315 99.7171 92.6292C99.8958 92.627 100.134 92.4701 100.451 92.2015L102.297 90.6395C104.142 89.0776 105.223 87.47 105.558 85.8594C105.674 85.3717 105.748 84.9031 105.754 84.5152C105.792 84.1393 105.799 83.7515 105.818 83.3328C105.837 82.914 105.839 82.6309 105.879 82.4335C105.908 82.2669 105.967 82.1123 106.065 82.0434C106.174 81.9435 106.291 81.9174 106.427 81.9342C106.563 81.9509 106.687 81.9986 106.787 82.1081C106.887 82.2176 106.963 82.389 107.028 82.5913L108.071 87.4648C108.162 87.7837 108.109 88.0121 107.957 88.1309C107.793 88.2807 107.664 88.3377 107.54 88.29C107.416 88.2424 107.311 88.2375 107.187 88.1899C107.063 88.1422 106.923 88.2301 106.77 88.349L97.244 96.4701C96.72 96.9075 96.3698 96.9858 96.1193 96.712C96 96.5596 95.9737 96.443 96.0022 96.2765C96.0617 96.1219 96.1449 95.9054 96.2948 95.6081C96.4447 95.3108 96.5399 95.0634 96.5492 94.8541C96.5586 94.6447 96.475 94.3996 96.2746 94.1805L83.6323 79.4155C83.3627 79.0988 83.1267 78.9726 82.917 78.9629C82.6954 78.9842 82.3761 79.0744 81.9401 79.1906C81.504 79.3069 81.2204 79.3043 81.0702 79.1401C80.8507 78.8782 81.0125 78.55 81.5055 78.1006L89.71 71.104C89.972 70.8853 90.0433 70.6998 89.9788 70.4975C89.9024 70.3261 89.9428 70.1287 90.0952 70.0098C90.2596 69.86 90.4693 69.8697 90.6743 69.984L95.4112 71.9122C95.4923 71.9788 95.5543 72.0027 95.6162 72.0265C95.6782 72.0503 95.6973 72.0932 95.7593 72.117C95.9788 72.3789 96.0004 72.6002 95.7932 72.769C95.586 72.9377 95.3215 72.978 94.9377 72.8659C93.3979 72.5222 92.0657 72.4714 90.941 72.7133C89.8163 72.9552 88.63 73.6348 87.4178 74.6595L86.2603 75.6342C85.9436 75.9028 85.7865 76.1264 85.758 76.2929C85.744 76.607 85.9014 76.845 86.1901 77.2045Z" fill="#127CCC"/>
<path d="M114.937 57.3073L117.665 62.7934C117.849 63.1481 118.018 63.3552 118.154 63.3719C118.321 63.4006 118.598 63.3294 118.995 63.1274L121.499 61.8896C121.854 61.7066 122.073 61.5069 122.125 61.2785C122.178 61.0501 122.18 60.767 122.151 60.4719C122.122 60.1769 122.162 59.9794 122.291 59.9224C122.548 59.8084 122.789 59.83 123.032 60.03L126.507 62.4664C126.588 62.5331 126.638 62.5878 126.657 62.6307C126.822 62.9425 126.781 63.1399 126.524 63.254C126.224 63.387 125.909 63.3725 125.542 63.1248C124.698 62.7293 123.809 62.6359 122.875 62.8446C121.941 63.0533 120.904 63.4357 119.809 63.9726C119.411 64.1746 119.142 64.3196 118.989 64.4384C118.849 64.5264 118.789 64.681 118.804 64.8285C118.818 64.976 118.89 65.2521 119.074 65.6067L123.711 74.9153C123.807 75.1295 123.969 75.2629 124.167 75.3035C124.365 75.344 124.605 75.3656 124.913 75.3063C125.22 75.2471 125.461 75.2687 125.64 75.2664C125.818 75.2641 125.949 75.3856 126.026 75.5569C126.191 75.8687 125.967 76.1731 125.343 76.501L120.905 78.6988C120.292 78.9958 119.904 78.9884 119.739 78.6766C119.651 78.5362 119.679 78.3696 119.758 78.2579C119.836 78.1461 119.994 77.9226 120.225 77.6919C120.456 77.4613 120.582 77.2258 120.684 77.0522C120.786 76.8786 120.753 76.6882 120.626 76.4621L111.902 58.9088C111.73 58.5233 111.518 58.3351 111.32 58.2946C111.122 58.254 110.796 58.2704 110.322 58.301C109.847 58.3316 109.599 58.2363 109.492 58.053C109.358 57.7531 109.582 57.4487 110.194 57.1517L120.876 51.8533C121.06 51.7463 121.15 51.6036 121.117 51.4133C121.095 51.192 121.174 51.0802 121.314 50.9923C121.486 50.9163 121.684 50.9568 121.896 51.1449L126.05 54.1267C126.15 54.2362 126.219 54.3338 126.269 54.3886C126.434 54.7004 126.393 54.8978 126.136 55.0118C125.91 55.1378 125.607 55.0924 125.29 54.8994C123.862 54.1728 122.587 53.7888 121.452 53.7785C120.287 53.7563 119.022 54.0861 117.571 54.8061L115.336 55.899C114.938 56.101 114.731 56.2698 114.703 56.4363C114.674 56.6028 114.734 56.9098 114.937 57.3073Z" fill="#127CCC"/>
<path d="M135.063 49.0031L136.817 54.8955C136.927 55.2572 137.054 55.4833 137.209 55.5429C137.364 55.6025 137.659 55.5741 138.064 55.4459L140.599 54.6815C141.035 54.5653 141.285 54.3775 141.4 54.1729C141.483 53.9565 141.547 53.6972 141.592 53.395C141.606 53.081 141.708 52.9074 141.825 52.8813C142.102 52.8101 142.33 52.8626 142.55 53.1245L145.557 56.1268C145.638 56.1935 145.677 56.2792 145.696 56.322C145.787 56.6409 145.703 56.8574 145.458 56.9405C145.17 57.0426 144.86 56.9234 144.504 56.6448C143.222 55.7255 141.279 55.6885 138.713 56.4409C138.277 56.5572 137.989 56.6593 137.848 56.7473C137.708 56.8352 137.629 56.947 137.601 57.1135C137.572 57.28 137.644 57.5561 137.754 57.9178L140.762 67.9486C140.891 68.3532 141.018 68.5793 141.173 68.6389C141.328 68.6985 141.623 68.6701 142.028 68.5419L144.361 67.8416C146.693 67.1413 148.325 66.136 149.299 64.8067C149.601 64.3905 149.849 64.0243 150.022 63.6651C150.196 63.306 150.358 62.9777 150.543 62.5876C150.729 62.1976 150.855 61.9621 150.957 61.7885C151.048 61.6458 151.157 61.5459 151.317 61.5008C151.446 61.4438 151.581 61.4606 151.694 61.5392C151.806 61.6178 151.887 61.6844 151.932 61.8439C151.989 61.9724 151.992 62.1509 151.94 62.3792L150.912 67.2727C150.855 67.6058 150.721 67.7675 150.55 67.8435C150.347 67.9076 150.211 67.8909 150.099 67.8123C150.018 67.7456 149.906 67.667 149.825 67.6003C149.744 67.5336 149.577 67.505 149.375 67.5691L137.361 71.1488C136.723 71.3292 136.327 71.248 136.236 70.9291C136.191 70.7697 136.22 70.6031 136.298 70.4914C136.377 70.3796 136.584 70.2108 136.834 70.023C137.084 69.8352 137.272 69.6236 137.374 69.45C137.477 69.2764 137.467 69.0241 137.376 68.7052L131.799 50.0906C131.67 49.686 131.513 49.448 131.315 49.4074C131.129 49.3359 130.795 49.2786 130.345 49.2473C129.906 49.1852 129.628 49.0779 129.575 48.8447C129.484 48.5258 129.758 48.2762 130.408 48.0649L140.739 44.9741C141.059 44.8839 141.223 44.7342 141.232 44.5248C141.242 44.3154 141.332 44.1727 141.566 44.1205C141.768 44.0564 141.954 44.1279 142.124 44.3351L145.658 48.0016C145.696 48.0873 145.747 48.142 145.766 48.1849C145.816 48.2396 145.835 48.2825 145.854 48.3253C145.945 48.6442 145.862 48.8607 145.616 48.9438C145.371 49.0269 145.092 48.9196 144.787 48.6958C143.516 47.7455 142.312 47.1761 141.187 46.9564C140.062 46.7367 138.701 46.8524 137.167 47.3272L135.718 47.764C135.313 47.8922 135.056 48.0062 134.996 48.1608C134.918 48.2726 134.946 48.5676 135.063 49.0031Z" fill="#127CCC"/>
<path d="M166.85 55.3353L171.863 62.3744C172.001 62.5696 172.163 62.7029 172.318 62.7625C172.473 62.8221 172.721 62.9174 173.055 62.9748C173.389 63.0321 173.606 63.1155 173.749 63.206C173.892 63.2965 173.98 63.437 173.982 63.6154C174.011 63.9105 173.773 64.0674 173.287 64.1289L167.163 64.7909C166.646 64.8405 166.348 64.6904 166.331 64.3644C166.309 64.1431 166.411 63.9695 166.681 63.8245C166.95 63.6796 167.207 63.5656 167.445 63.4087C167.714 63.2637 167.817 63.0901 167.795 62.8688C167.781 62.7213 167.685 62.5071 167.509 62.2262L163.541 56.2634C162.914 56.4128 162.226 56.5385 161.444 56.6283C160.705 56.6992 160.021 56.7201 159.392 56.6912L160.141 63.4393C160.162 63.6606 160.251 63.8011 160.413 63.9344C160.587 64.0369 160.804 64.1203 161.126 64.2085C161.448 64.2968 161.645 64.3374 161.819 64.4398C161.993 64.5422 162.063 64.6398 162.065 64.8183C162.101 65.1871 161.777 65.382 161.112 65.4458L156.182 65.9634C155.517 66.0272 155.145 65.8842 155.097 65.5463C155.083 65.3988 155.142 65.2442 155.264 65.1134C155.416 64.9945 155.612 64.8567 155.881 64.7117C156.15 64.5668 156.376 64.4408 156.51 64.2791C156.631 64.1483 156.69 63.9937 156.669 63.7724L154.623 44.2085C154.606 43.8825 154.48 43.6564 154.317 43.523C154.155 43.3897 153.907 43.2943 153.586 43.2061C153.295 43.1298 153.066 43.0772 152.923 42.9867C152.78 42.8962 152.711 42.7986 152.677 42.6083C152.629 42.2704 152.953 42.0755 153.618 42.0117L159.101 41.3517C162.437 41.0018 165.131 41.3986 167.157 42.604C167.854 43.0137 168.495 43.4733 169.046 44.0757C169.609 44.6471 170.093 45.3303 170.461 46.0396C170.816 46.7798 171.067 47.5151 171.158 48.2956C171.341 49.8565 171.015 51.2577 170.225 52.4801C169.497 53.7264 168.351 54.6702 166.85 55.3353ZM157.997 43.4827L159.125 53.9619C159.264 55.0803 159.925 55.5828 161.181 55.4623C162.511 55.3347 163.64 54.9881 164.6 54.4344C165.56 53.8807 166.308 53.1389 166.75 52.1732C167.224 51.2194 167.392 50.0418 167.243 48.6712C167.152 47.8907 166.944 47.1364 166.588 46.3962C166.233 45.656 165.767 45.0156 165.216 44.4133C164.654 43.8418 164.012 43.3822 163.323 43.0462C162.193 42.4697 160.951 42.2761 159.579 42.4227C158.478 42.6027 157.959 42.9355 157.997 43.4827Z" fill="#127CCC"/>
<path d="M189.591 55.7745L193.222 63.631C193.348 63.8572 193.468 64.0095 193.611 64.1C193.754 64.1905 193.99 64.3168 194.3 64.436C194.609 64.5552 194.803 64.7004 194.946 64.791C195.077 64.9124 195.134 65.0409 195.125 65.2503C195.092 65.5215 194.822 65.6664 194.341 65.6233L188.194 65.1408C187.67 65.1167 187.427 64.9166 187.453 64.5717C187.462 64.3623 187.627 64.2125 187.915 64.1104C188.203 64.0083 188.479 63.9371 188.768 63.835C189.056 63.7329 189.189 63.5712 189.199 63.3618C189.215 63.2262 189.163 62.993 189.041 62.6622L186.247 56.0506C185.625 56.0954 184.911 56.1044 184.115 56.0467C183.361 55.9701 182.682 55.8863 182.1 55.7337L181.567 62.4857C181.558 62.6951 181.622 62.8974 181.753 63.0188C181.916 63.1522 182.109 63.2974 182.388 63.4047C182.667 63.512 182.903 63.6382 183.003 63.7477C183.103 63.8572 183.191 63.9977 183.194 64.1761C183.168 64.5211 182.825 64.6732 182.134 64.6203L177.136 64.2957C176.445 64.2429 176.14 64.019 176.165 63.674C176.194 63.5075 176.272 63.3957 176.413 63.3078C176.554 63.2198 176.799 63.1367 177.087 63.0346C177.376 62.9325 177.621 62.8494 177.773 62.7306C177.926 62.6117 178.016 62.469 178.026 62.2596L179.578 42.5887C179.592 42.2747 179.54 42.0415 179.39 41.8772C179.239 41.7129 179.015 41.5557 178.736 41.4485C178.457 41.3412 178.252 41.2268 178.121 41.1054C177.978 41.0149 177.933 40.8555 177.961 40.6889C177.987 40.3439 178.318 40.2228 179.009 40.2756L184.52 40.6554C187.87 40.9147 190.435 41.8301 192.226 43.3707C192.844 43.8922 193.364 44.4826 193.817 45.1539C194.271 45.8252 194.626 46.5654 194.853 47.3626C195.08 48.1598 195.172 48.9403 195.115 49.7349C195.002 51.3242 194.429 52.63 193.426 53.6643C192.486 54.7225 191.183 55.4282 189.591 55.7745ZM183.091 42.5198L182.253 53.0238C182.171 54.1634 182.753 54.7776 183.999 54.8665C185.308 54.9793 186.502 54.8349 187.557 54.4954C188.612 54.1559 189.448 53.5545 190.096 52.7032C190.744 51.8519 191.11 50.7148 191.233 49.3777C191.289 48.5831 191.229 47.8145 191.002 47.0173C190.806 46.232 190.45 45.4918 189.997 44.8205C189.544 44.1493 189.012 43.5898 188.401 43.142C187.405 42.4038 186.196 41.939 184.845 41.8452C183.715 41.7303 183.126 41.9654 183.091 42.5198Z" fill="#127CCC"/>
<path d="M207.095 46.4265L202.773 65.5292C202.697 65.8194 202.749 66.0526 202.857 66.2359C202.964 66.4192 203.188 66.5764 203.443 66.7455C203.698 66.9146 203.903 67.0289 204.004 67.1384C204.104 67.2479 204.161 67.3765 204.121 67.5739C204.052 67.9379 203.702 68.0162 203.046 67.8706L198.241 66.768C197.585 66.6225 197.292 66.3677 197.38 66.0465C197.408 65.88 197.53 65.7492 197.658 65.6922C197.818 65.6471 198.052 65.5949 198.359 65.5357C198.666 65.4764 198.931 65.4361 199.114 65.3292C199.298 65.2222 199.412 65.0177 199.488 64.7275L203.81 45.6247C203.879 45.2608 203.87 45.0086 203.738 44.8871C203.607 44.7657 203.333 44.5537 202.978 44.2751C202.591 43.9846 202.434 43.7465 202.486 43.5182C202.574 43.197 202.924 43.1187 203.58 43.2643L208.385 44.3669C209.01 44.5005 209.303 44.7553 209.234 45.1193C209.194 45.3168 208.936 45.4308 208.512 45.5162C208.057 45.5896 207.738 45.6798 207.535 45.7439C207.333 45.808 207.207 46.0435 207.095 46.4265Z" fill="#127CCC"/>
<path d="M228.254 50.9783L229.063 55.904C229.09 56.0206 229.085 56.1253 229.037 56.249C228.895 56.6201 228.711 56.727 228.494 56.6436C228.216 56.5363 227.996 56.2744 227.836 55.858C227.44 54.8536 227.07 53.9659 226.683 53.2138C226.296 52.4617 225.867 51.7285 225.309 51.0524C224.75 50.3763 224.152 49.8977 223.47 49.6355C222.571 49.2899 221.72 49.2821 220.91 49.5386C220.088 49.8259 219.505 50.4179 219.172 51.2838C218.494 53.0463 219.246 54.7909 221.416 56.5483L223.718 58.4271C224.416 59.0153 225.129 59.751 225.876 60.6771C226.592 61.5912 227.162 62.698 227.514 64.0044C227.865 65.3109 227.785 66.629 227.25 68.0205C226.477 70.0305 225.265 71.5167 223.657 72.4602C221.585 73.6864 219.33 73.8134 216.851 72.8599C215.549 72.3594 214.505 71.7448 213.706 71.0471L212.819 70.209C212.576 70.009 212.371 69.8946 212.216 69.8351C212.03 69.7635 211.796 69.8157 211.589 69.9845C211.382 70.1533 211.179 70.2174 210.993 70.1459C210.715 70.0386 210.576 69.8434 210.497 69.4936L209.41 63.2544C209.365 63.0949 209.393 62.9284 209.453 62.7738C209.512 62.6192 209.591 62.5074 209.731 62.4195C209.872 62.3315 210.008 62.3483 210.163 62.4079C210.38 62.4913 210.53 62.6556 210.676 62.9245C210.821 63.1935 211.089 63.7933 211.497 64.7667C211.917 65.7092 212.254 66.4065 212.518 66.8278C212.948 67.561 213.37 68.2203 213.731 68.8558C214.091 69.4913 214.53 70.0151 214.962 70.4651C215.393 70.9151 215.978 71.2462 216.659 71.5084C217.589 71.8659 218.49 71.9284 219.369 71.7696C220.26 71.5799 221.056 71.1759 221.725 70.5459C222.394 69.9158 222.913 69.1215 223.27 68.1938C224.233 65.6891 223.285 63.1592 220.5 60.5972L218.501 58.7638C217.34 57.7137 216.466 56.5615 215.882 55.3072C215.328 54.0649 215.279 52.8038 215.767 51.536C216.135 50.5774 216.747 49.8188 217.583 49.2174C218.419 48.616 219.382 48.2408 220.459 48.1226C221.505 47.9924 222.53 48.1026 223.46 48.4601C224.048 48.6865 224.551 48.951 224.95 49.2106C225.336 49.5012 225.722 49.7917 226.066 50.1012C226.409 50.4108 226.621 50.5989 226.745 50.6466C226.869 50.6942 227.029 50.6491 227.274 50.566C227.52 50.4829 227.679 50.4378 227.772 50.4736C228.094 50.5618 228.244 50.7261 228.254 50.9783Z" fill="#127CCC"/>
<path d="M248.753 79.4483C248.517 79.7836 248.15 79.9975 247.726 80.0829C247.302 80.1682 246.906 80.0871 246.582 79.8204C246.215 79.5727 246 79.2061 245.895 78.7397C245.789 78.2733 245.87 77.8784 246.106 77.5431C246.396 77.1578 246.732 76.932 247.175 76.8895C247.619 76.847 248.014 76.9281 248.401 77.2187C248.737 77.4545 248.921 77.8091 248.995 78.2636C249.1 78.73 249.019 79.1249 248.753 79.4483Z" fill="#127CCC"/>
</svg>




