<?xml version="1.0" encoding="iso-8859-1"?>
<svg width="68" height="56" viewBox="0 0 68 56" fill="none" xmlns="http://www.w3.org/2000/svg">
<path d="M23.9856 42.3725H44.0198C44.3537 42.3725 44.6269 42.103 44.6269 41.7735V35.4839C44.6269 35.1544 44.3537 34.8849 44.0198 34.8849H40.9843C40.6504 34.8849 40.3772 35.1544 40.3772 35.4839V38.1794H27.6282V35.4839C27.6282 35.1544 27.355 34.8849 27.0211 34.8849H23.9856C23.6517 34.8849 23.3785 35.1544 23.3785 35.4839V41.7735C23.3785 42.103 23.6517 42.3725 23.9856 42.3725ZM49.7872 33.1627C49.7872 33.9571 50.107 34.7189 50.6762 35.2805C51.2455 35.8422 52.0176 36.1578 52.8227 36.1578C53.6277 36.1578 54.3998 35.8422 54.9691 35.2805C55.5383 34.7189 55.8581 33.9571 55.8581 33.1627C55.8581 32.3684 55.5383 31.6066 54.9691 31.0449C54.3998 30.4832 53.6277 30.1677 52.8227 30.1677C52.0176 30.1677 51.2455 30.4832 50.6762 31.0449C50.107 31.6066 49.7872 32.3684 49.7872 33.1627ZM67.9241 20.6135L66.1256 17.5136C66.0448 17.3769 65.9124 17.2774 65.7574 17.2367C65.6024 17.196 65.4375 17.2175 65.2985 17.2964L61.451 19.5128L55.509 3.32451C55.1953 2.35856 54.5786 1.51598 53.7479 0.918418C52.9172 0.320856 51.9156 -0.000761265 50.8875 1.3531e-06H18.0057C15.3725 1.3531e-06 13.0351 1.67723 12.2231 4.15564L6.56198 19.5203L2.70692 17.3039C2.56794 17.225 2.40294 17.2035 2.24796 17.2442C2.09298 17.2849 1.96061 17.3844 1.87976 17.5211L0.081236 20.6135C-0.0857153 20.898 0.0129379 21.2574 0.301308 21.4221L4.88488 24.0578L3.78452 27.0528C3.69345 27.2924 3.64792 27.547 3.64792 27.8016V53.8735C3.64792 55.0491 4.54339 56 5.64375 56H10.7737C11.7071 56 12.5191 55.3036 12.7164 54.3303L13.3007 51.5074H54.7046L55.289 54.3303C55.4939 55.3036 56.2983 56 57.2317 56H62.3616C63.462 56 64.3575 55.0491 64.3575 53.8735V27.8016C64.3575 27.547 64.3119 27.2924 64.2209 27.0528L63.1205 24.0578L67.6965 21.4221C67.8342 21.3436 67.9353 21.2149 67.9779 21.0637C68.0204 20.9125 68.0011 20.7508 67.9241 20.6135ZM58.8936 28.3706V46.1163H9.11178V28.3706L10.2956 25.151H57.7098L58.8936 28.3706ZM17.3607 5.99011L17.3986 5.89277L17.429 5.79543C17.5125 5.54834 17.7401 5.38361 18.0057 5.38361H50.455L56.1769 20.9579H11.8437L17.3607 5.99011ZM12.1473 33.1627C12.1473 33.9571 12.4671 34.7189 13.0363 35.2805C13.6056 35.8422 14.3777 36.1578 15.1827 36.1578C15.9878 36.1578 16.7599 35.8422 17.3291 35.2805C17.8984 34.7189 18.2182 33.9571 18.2182 33.1627C18.2182 32.3684 17.8984 31.6066 17.3291 31.0449C16.7599 30.4832 15.9878 30.1677 15.1827 30.1677C14.3777 30.1677 13.6056 30.4832 13.0363 31.0449C12.4671 31.6066 12.1473 32.3684 12.1473 33.1627Z" fill="black"/>
</svg>
