<?xml version="1.0" encoding="iso-8859-1"?>
<svg width="65" height="62" viewBox="0 0 65 62" fill="none" xmlns="http://www.w3.org/2000/svg">
<path d="M32.4499 56.0099H8.88999C7.32787 56.0099 5.82972 55.3893 4.72514 54.2848C3.62055 53.1802 3 51.682 3 50.1199V8.88999C3 7.32787 3.62055 5.82972 4.72514 4.72514C5.82972 3.62055 7.32787 3 8.88999 3H56.0099C57.572 3 59.0702 3.62055 60.1747 4.72514C61.2793 5.82972 61.8999 7.32787 61.8999 8.88999V32.4499" stroke="black" stroke-width="4.5" stroke-linecap="round"/>
<path d="M58.9549 41.4322L44.2299 55.8627M3 14.78H61.8999H3ZM11.835 8.91948L11.8644 8.88708L11.835 8.91948ZM20.67 8.91948L20.6994 8.88708L20.67 8.91948ZM29.5049 8.91948L29.5344 8.88708L29.5049 8.91948ZM58.9549 41.4322C58.0074 40.4654 56.8787 39.6946 55.6333 39.1639C54.3879 38.6333 53.0502 38.3531 51.6965 38.3394C50.3429 38.3258 48.9997 38.5789 47.7439 39.0843C46.488 39.5896 45.344 40.3374 44.3772 41.285C43.4103 42.2325 42.6395 43.3612 42.1089 44.6066C41.5782 45.8519 41.2981 47.1897 41.2844 48.5433C41.2568 51.2772 42.3163 53.91 44.2299 55.8627L58.9549 41.4322ZM58.949 41.4322C59.9191 42.3939 60.6884 43.5388 61.2122 44.8003C61.736 46.0619 62.0037 47.415 62 48.781C61.9962 50.147 61.7209 51.4986 61.1902 52.7573C60.6595 54.0159 59.8839 55.1566 58.9085 56.1129C57.9331 57.0692 56.7773 57.822 55.5084 58.3277C54.2394 58.8334 52.8827 59.0818 51.5169 59.0586C50.1511 59.0353 48.8035 58.7408 47.5526 58.1921C46.3016 57.6435 45.1722 56.8517 44.2299 55.8627L58.949 41.4322Z" stroke="black" stroke-width="4.5" stroke-linecap="round" stroke-linejoin="round"/>
</svg>
