<?xml version="1.0" encoding="iso-8859-1"?>
<!-- Generator: Adobe Illustrator 19.1.0, SVG Export Plug-In . SVG Version: 6.00 Build 0)  -->
<svg width="69" height="59" viewBox="0 0 69 59" fill="none" xmlns="http://www.w3.org/2000/svg">
<path d="M40.0188 25.3706C36.8167 25.3706 33.7458 26.636 31.4816 28.8884C29.2174 31.1408 27.9453 34.1957 27.9453 37.3811V39.7832H23.1208C21.1995 39.7832 19.357 40.5424 17.9984 41.8939C16.6399 43.2453 15.8767 45.0783 15.8767 46.9895C15.8767 48.9007 16.6399 50.7337 17.9984 52.0851C19.357 53.4366 21.1995 54.1958 23.1208 54.1958H56.9265C58.8478 54.1958 60.6903 53.4366 62.0489 52.0851C63.4074 50.7337 64.1706 48.9007 64.1706 46.9895C64.1706 45.0783 63.4074 43.2453 62.0489 41.8939C60.6903 40.5424 58.8478 39.7832 56.9265 39.7832H52.0971L52.0923 37.3811C52.0923 34.1957 50.8203 31.1408 48.5561 28.8884C46.2918 26.636 43.2209 25.3706 40.0188 25.3706ZM23.2898 34.979C23.8712 30.9778 25.8822 27.319 28.9546 24.6727C32.0269 22.0264 35.9548 20.5698 40.0188 20.5698C44.0828 20.5698 48.0107 22.0264 51.083 24.6727C54.1554 27.319 56.1664 30.9778 56.7478 34.979H56.9265C60.1286 34.979 63.1995 36.2444 65.4638 38.4968C67.728 40.7492 69 43.8041 69 46.9895C69 50.1749 67.728 53.2298 65.4638 55.4822C63.1995 57.7346 60.1286 59 56.9265 59H23.1208C19.9187 59 16.8477 57.7346 14.5835 55.4822C12.3193 53.2298 11.0473 50.1749 11.0473 46.9895C11.0473 43.8041 12.3193 40.7492 14.5835 38.4968C16.8477 36.2444 19.9187 34.979 23.1208 34.979H23.2898ZM38.995 5.28906C39.144 5.01052 39.2365 4.7055 39.267 4.39143C39.2975 4.07735 39.2656 3.76037 39.173 3.45858C39.0804 3.15678 38.9289 2.87609 38.7273 2.63252C38.5256 2.38895 38.2777 2.18728 37.9977 2.03902C37.7177 1.89076 37.4111 1.79881 37.0954 1.76843C36.7796 1.73805 36.461 1.76982 36.1576 1.86195C35.8543 1.95407 35.5721 2.10473 35.3272 2.30533C35.0824 2.50593 34.8797 2.75254 34.7306 3.03109L32.6733 6.88886C32.3723 7.4514 32.3083 8.10984 32.4953 8.71934C32.6823 9.32884 33.1051 9.83947 33.6706 10.1389C34.2361 10.4383 34.898 10.502 35.5107 10.316C36.1234 10.1299 36.6367 9.70937 36.9377 9.14683L38.995 5.28425V5.28906ZM20.7785 1.70032C20.6856 1.39844 20.5338 1.11772 20.3319 0.874181C20.1299 0.630647 19.8817 0.429071 19.6014 0.280962C19.3211 0.132853 19.0142 0.0411122 18.6983 0.0109771C18.3824 -0.0191581 18.0636 0.0129022 17.7601 0.105329C17.4567 0.197755 17.1745 0.348737 16.9297 0.549654C16.6849 0.75057 16.4822 0.997487 16.3333 1.27631C16.1845 1.55513 16.0922 1.86039 16.0619 2.17466C16.0316 2.48894 16.0639 2.80607 16.1568 3.10795L17.4462 7.28761C17.641 7.88811 18.0654 8.38827 18.6278 8.68002C19.1902 8.97177 19.8454 9.03166 20.4519 8.84677C21.0583 8.66187 21.5673 8.24703 21.8688 7.69189C22.1703 7.13675 22.2401 6.4859 22.0631 5.87998L20.7785 1.70032ZM25.5355 10.958C29.9592 10.958 33.9145 12.9277 36.5706 16.0312C34.7272 16.3227 32.93 16.8525 31.2245 17.607C29.363 16.2611 27.0795 15.6206 24.7854 15.8008C22.4912 15.981 20.3372 16.9701 18.7111 18.5901C17.085 20.21 16.0938 22.3542 15.9159 24.6366C15.738 26.9191 16.3852 29.1897 17.7408 31.0396C16.193 31.5565 14.7288 32.2944 13.3944 33.2303C11.972 31.0554 11.1662 28.5388 11.062 25.9462C10.9579 23.3536 11.5592 20.781 12.8026 18.5001C14.0459 16.2192 15.8852 14.3145 18.1263 12.9871C20.3674 11.6596 22.9272 10.9586 25.5355 10.958ZM5.3486 11.9861C5.0686 11.8379 4.76198 11.7459 4.44626 11.7155C4.13054 11.6851 3.81189 11.7169 3.50852 11.809C3.20514 11.9012 2.92297 12.0518 2.67813 12.2524C2.43328 12.453 2.23055 12.6996 2.08151 12.9782C1.93248 13.2567 1.84005 13.5617 1.80951 13.8758C1.77897 14.1899 1.81091 14.5069 1.90351 14.8087C1.99612 15.1105 2.14757 15.3911 2.34923 15.6347C2.55088 15.8783 2.79878 16.08 3.07878 16.2282L6.95679 18.2748C7.52228 18.5742 8.18417 18.6379 8.79687 18.4519C9.40957 18.2658 9.92288 17.8453 10.2239 17.2827C10.5249 16.7202 10.5889 16.0618 10.4019 15.4523C10.2148 14.8428 9.79209 14.3321 9.2266 14.0327L5.34377 11.9861H5.3486ZM7.35763 33.4272C7.96128 33.2335 8.46407 32.8113 8.75734 32.2518C9.05062 31.6924 9.11083 31.0405 8.92497 30.4373C8.7391 29.834 8.32208 29.3277 7.76403 29.0278C7.20598 28.7279 6.55172 28.6584 5.94261 28.8344L1.74104 30.1124C1.43367 30.2012 1.14712 30.3499 0.898048 30.5499C0.648979 30.7499 0.442365 30.9972 0.290222 31.2773C0.138079 31.5574 0.0434428 31.8649 0.0118163 32.1817C-0.0198102 32.4986 0.0122046 32.8185 0.105999 33.123C0.199793 33.4274 0.353494 33.7103 0.558165 33.9551C0.762836 34.1999 1.01439 34.4018 1.2982 34.549C1.58202 34.6962 1.89242 34.7858 2.21137 34.8126C2.53031 34.8395 2.85143 34.8029 3.15606 34.7052L7.35763 33.4272Z" fill="black"/>
</svg>
